<svg width="175" height="27" viewBox="0 0 175 27" fill="none" xmlns="http://www.w3.org/2000/svg">
<path d="M3.35598 26.324C2.10798 26.324 1.07598 25.868 0.259985 24.956L8.75599 13.04L0.655985 1.484C0.943985 1.172 1.33998 0.931999 1.84398 0.763999C2.37198 0.571998 2.91198 0.475998 3.46398 0.475998C4.23198 0.475998 4.93998 0.607999 5.58799 0.872C6.25999 1.112 6.71599 1.424 6.95599 1.808L11.384 8.72L10.34 10.196L10.736 10.484L16.46 1.808C16.7 1.424 17.144 1.112 17.792 0.872C18.464 0.607999 19.184 0.475998 19.952 0.475998C20.504 0.475998 21.032 0.571998 21.536 0.763999C22.064 0.931999 22.472 1.172 22.76 1.484L14.66 13.04L23.156 24.956C22.34 25.868 21.308 26.324 20.06 26.324C18.74 26.324 17.756 25.856 17.108 24.92L11.708 16.892L6.30799 24.92C6.01999 25.352 5.61199 25.7 5.08399 25.964C4.55598 26.204 3.97998 26.324 3.35598 26.324ZM25.678 17.612C25.678 16.268 25.954 15.236 26.506 14.516C27.058 13.772 27.91 13.4 29.062 13.4H40.762C40.762 16.208 39.634 17.612 37.378 17.612H25.678ZM46.6752 26C45.9312 26 45.2952 25.772 44.7672 25.316C44.2632 24.86 44.0112 24.284 44.0112 23.588V3.212C44.0112 2.516 44.2632 1.94 44.7672 1.484C45.2952 1.028 45.9312 0.799998 46.6752 0.799998H54.5232C56.6832 0.799998 58.5912 1.22 60.2472 2.06C61.9032 2.876 63.1872 4.04 64.0992 5.552C65.0352 7.064 65.5032 8.792 65.5032 10.736V15.992C65.5032 17.936 65.0352 19.676 64.0992 21.212C63.1872 22.724 61.8912 23.9 60.2112 24.74C58.5552 25.58 56.6592 26 54.5232 26H46.6752ZM54.1632 21.464C56.1552 21.464 57.6552 21.008 58.6632 20.096C59.6952 19.184 60.2112 17.84 60.2112 16.064V10.664C60.2112 8.912 59.6952 7.592 58.6632 6.704C57.6552 5.792 56.1552 5.336 54.1632 5.336H49.3032V21.464H54.1632ZM76.7901 26.324C75.3021 26.324 73.9221 26.024 72.6501 25.424C71.4021 24.824 70.4061 24.008 69.6621 22.976C68.9181 21.944 68.5461 20.792 68.5461 19.52V14.912C68.5461 13.568 68.9181 12.344 69.6621 11.24C70.4301 10.112 71.4501 9.236 72.7221 8.612C73.9941 7.988 75.3621 7.676 76.8261 7.676C78.2661 7.676 79.5861 7.976 80.7861 8.576C82.0101 9.152 82.9701 9.98 83.6661 11.06C84.3621 12.116 84.7101 13.316 84.7101 14.66V16.604C84.7101 17.18 84.4941 17.672 84.0621 18.08C83.6301 18.464 83.0781 18.656 82.4061 18.656H73.3341V19.16C73.3341 20.12 73.6221 20.912 74.1981 21.536C74.7981 22.136 75.6741 22.436 76.8261 22.436C77.9541 22.436 78.7821 22.196 79.3101 21.716C79.8381 21.212 80.1021 20.588 80.1021 19.844C80.5821 19.796 80.9421 19.772 81.1821 19.772C82.1661 19.772 82.9221 19.976 83.4501 20.384C83.9781 20.792 84.2421 21.392 84.2421 22.184C84.2421 22.832 83.9181 23.48 83.2701 24.128C82.6221 24.776 81.7221 25.304 80.5701 25.712C79.4421 26.12 78.1821 26.324 76.7901 26.324ZM80.2461 15.164V14.66C80.2461 13.7 79.9221 12.944 79.2741 12.392C78.6501 11.816 77.8221 11.528 76.7901 11.528C75.7581 11.528 74.9181 11.816 74.2701 12.392C73.6461 12.944 73.3341 13.7 73.3341 14.66V15.164H80.2461ZM89.7205 11.636H86.8765C86.8765 10.388 87.0445 9.476 87.3805 8.9C87.7405 8.3 88.2805 8 89.0005 8H89.7205V6.776C89.7205 4.976 90.2485 3.476 91.3045 2.276C92.3845 1.076 93.9565 0.475998 96.0205 0.475998C97.4605 0.475998 98.5525 0.787998 99.2965 1.412C100.065 2.012 100.449 2.696 100.449 3.464C100.449 3.824 100.365 4.184 100.197 4.544C100.053 4.904 99.8485 5.204 99.5845 5.444C98.6965 4.964 97.7965 4.724 96.8845 4.724C96.1165 4.724 95.5525 4.904 95.1925 5.264C94.8325 5.6 94.6525 6.164 94.6525 6.956V8H99.3685C99.3685 9.296 99.1285 10.232 98.6485 10.808C98.1685 11.36 97.3765 11.636 96.2725 11.636H94.6525V23.444C94.6525 24.476 94.2445 25.22 93.4285 25.676C92.6365 26.108 91.4005 26.324 89.7205 26.324V11.636ZM108.325 26.324C106.837 26.324 105.457 26.024 104.185 25.424C102.937 24.824 101.941 24.008 101.197 22.976C100.453 21.944 100.081 20.792 100.081 19.52V14.912C100.081 13.568 100.453 12.344 101.197 11.24C101.965 10.112 102.985 9.236 104.257 8.612C105.529 7.988 106.897 7.676 108.361 7.676C109.801 7.676 111.121 7.976 112.321 8.576C113.545 9.152 114.505 9.98 115.201 11.06C115.897 12.116 116.245 13.316 116.245 14.66V16.604C116.245 17.18 116.029 17.672 115.597 18.08C115.165 18.464 114.613 18.656 113.941 18.656H104.869V19.16C104.869 20.12 105.157 20.912 105.733 21.536C106.333 22.136 107.209 22.436 108.361 22.436C109.489 22.436 110.317 22.196 110.845 21.716C111.373 21.212 111.637 20.588 111.637 19.844C112.117 19.796 112.477 19.772 112.717 19.772C113.701 19.772 114.457 19.976 114.985 20.384C115.513 20.792 115.777 21.392 115.777 22.184C115.777 22.832 115.453 23.48 114.805 24.128C114.157 24.776 113.257 25.304 112.105 25.712C110.977 26.12 109.717 26.324 108.325 26.324ZM111.781 15.164V14.66C111.781 13.7 111.457 12.944 110.809 12.392C110.185 11.816 109.357 11.528 108.325 11.528C107.293 11.528 106.453 11.816 105.805 12.392C105.181 12.944 104.869 13.7 104.869 14.66V15.164H111.781ZM119.492 11.42C119.492 10.22 119.888 9.296 120.68 8.648C121.472 8 122.648 7.676 124.208 7.676V9.8C123.848 10.184 123.548 10.592 123.308 11.024L123.56 11.168C124.28 10.064 125.192 9.212 126.296 8.612C127.424 7.988 128.672 7.676 130.04 7.676C131.24 7.676 132.296 7.952 133.208 8.504C134.144 9.056 134.876 9.824 135.404 10.808C135.932 11.768 136.196 12.848 136.196 14.048V23.444C136.196 24.476 135.788 25.22 134.972 25.676C134.156 26.108 132.92 26.324 131.264 26.324V14.804C131.264 13.988 131 13.304 130.472 12.752C129.968 12.2 129.248 11.924 128.312 11.924C127.16 11.924 126.224 12.296 125.504 13.04C124.784 13.784 124.424 14.72 124.424 15.848V23.444C124.424 24.476 124.016 25.22 123.2 25.676C122.408 26.108 121.172 26.324 119.492 26.324V11.42ZM147.584 26.324C145.136 26.324 143.204 25.916 141.788 25.1C140.372 24.26 139.664 23.144 139.664 21.752C139.664 21.128 139.928 20.6 140.456 20.168C141.008 19.736 141.884 19.52 143.084 19.52C143.276 20.48 143.756 21.236 144.524 21.788C145.292 22.316 146.192 22.58 147.224 22.58C148.424 22.58 149.348 22.436 149.996 22.148C150.668 21.86 151.004 21.44 151.004 20.888C151.004 20.408 150.74 19.988 150.212 19.628C149.684 19.268 148.628 18.896 147.044 18.512C145.196 18.08 143.756 17.648 142.724 17.216C141.716 16.76 140.972 16.196 140.492 15.524C140.012 14.852 139.772 13.964 139.772 12.86C139.772 11.3 140.42 10.052 141.716 9.116C143.036 8.156 144.872 7.676 147.224 7.676C149.528 7.676 151.4 8.072 152.84 8.864C154.28 9.656 155 10.712 155 12.032C155 12.704 154.748 13.196 154.244 13.508C153.74 13.796 152.9 13.952 151.724 13.976C151.412 13.064 150.932 12.392 150.284 11.96C149.66 11.504 148.76 11.276 147.584 11.276C146.744 11.276 146 11.42 145.352 11.708C144.704 11.996 144.38 12.344 144.38 12.752C144.38 13.208 144.644 13.568 145.172 13.832C145.724 14.096 146.636 14.36 147.908 14.624C150.668 15.224 152.648 16.016 153.848 17C155.072 17.984 155.684 19.316 155.684 20.996C155.684 22.028 155.36 22.952 154.712 23.768C154.064 24.584 153.128 25.22 151.904 25.676C150.68 26.108 149.24 26.324 147.584 26.324ZM166.685 26.324C165.197 26.324 163.817 26.024 162.545 25.424C161.297 24.824 160.301 24.008 159.557 22.976C158.813 21.944 158.441 20.792 158.441 19.52V14.912C158.441 13.568 158.813 12.344 159.557 11.24C160.325 10.112 161.345 9.236 162.617 8.612C163.889 7.988 165.257 7.676 166.721 7.676C168.161 7.676 169.481 7.976 170.681 8.576C171.905 9.152 172.865 9.98 173.561 11.06C174.257 12.116 174.605 13.316 174.605 14.66V16.604C174.605 17.18 174.389 17.672 173.957 18.08C173.525 18.464 172.973 18.656 172.301 18.656H163.229V19.16C163.229 20.12 163.517 20.912 164.093 21.536C164.693 22.136 165.569 22.436 166.721 22.436C167.849 22.436 168.677 22.196 169.205 21.716C169.733 21.212 169.997 20.588 169.997 19.844C170.477 19.796 170.837 19.772 171.077 19.772C172.061 19.772 172.817 19.976 173.345 20.384C173.873 20.792 174.137 21.392 174.137 22.184C174.137 22.832 173.813 23.48 173.165 24.128C172.517 24.776 171.617 25.304 170.465 25.712C169.337 26.12 168.077 26.324 166.685 26.324ZM170.141 15.164V14.66C170.141 13.7 169.817 12.944 169.169 12.392C168.545 11.816 167.717 11.528 166.685 11.528C165.653 11.528 164.813 11.816 164.165 12.392C163.541 12.944 163.229 13.7 163.229 14.66V15.164H170.141Z" fill="white"/>
</svg>
